<?xml version="1.0" encoding="UTF-8" standalone="no"?>
<svg
   xmlns:dc="http://purl.org/dc/elements/1.1/"
   xmlns:cc="http://creativecommons.org/ns#"
   xmlns:rdf="http://www.w3.org/1999/02/22-rdf-syntax-ns#"
   xmlns:svg="http://www.w3.org/2000/svg"
   xmlns="http://www.w3.org/2000/svg"
   xmlns:sodipodi="http://sodipodi.sourceforge.net/DTD/sodipodi-0.dtd"
   xmlns:inkscape="http://www.inkscape.org/namespaces/inkscape"
   inkscape:version="1.0 (4035a4f, 2020-05-01)"
   sodipodi:docname="Continuous Deployment.svg"
   version="1.1"
   viewBox="0 0 841.89 232.208"
   height="81.918mm"
   width="297mm"
   data-name="Layer 1"
   id="Layer_1">
  <metadata
     id="metadata345">
    <rdf:RDF>
      <cc:Work
         rdf:about="">
        <dc:format>image/svg+xml</dc:format>
        <dc:type
           rdf:resource="http://purl.org/dc/dcmitype/StillImage" />
        <dc:title></dc:title>
        <dc:subject>
          <rdf:Bag>
            <rdf:li>cicd</rdf:li>
            <rdf:li>continuous integration</rdf:li>
            <rdf:li>continuous delivery</rdf:li>
            <rdf:li>continuous deployment</rdf:li>
          </rdf:Bag>
        </dc:subject>
      </cc:Work>
    </rdf:RDF>
  </metadata>
  <sodipodi:namedview
     inkscape:current-layer="Layer_1"
     inkscape:window-maximized="0"
     inkscape:window-y="23"
     inkscape:window-x="0"
     inkscape:cy="154.80567"
     inkscape:cx="561.25984"
     inkscape:zoom="0.44631734"
     showgrid="false"
     id="namedview343"
     inkscape:window-height="480"
     inkscape:window-width="987"
     inkscape:pageshadow="2"
     inkscape:pageopacity="0"
     guidetolerance="10"
     gridtolerance="10"
     objecttolerance="10"
     borderopacity="1"
     bordercolor="#666666"
     pagecolor="#ffffff" />
  <defs
     id="defs12">
    <style
       id="style10">
      .cls-1 {
        fill: #dfdedf;
      }

      .cls-2 {
        fill: #1d1d1b;
      }

      .cls-3 {
        fill: #fff;
      }

      .cls-4 {
        fill: none;
        stroke: #151515;
        stroke-miterlimit: 10;
      }

      .cls-5 {
        fill: #151515;
      }

      .cls-6 {
        fill: #010202;
      }
    </style>
  </defs>
  <rect
     id="rect14"
     height="204.262"
     width="817.728"
     y="14.592"
     x="12.081"
     class="cls-1" />
  <g
     id="g56">
    <path
       id="path16"
       d="M35.449,36.749l1.356,1.283a4.3,4.3,0,1,1,.06-5.409l-1.392,1.319a2.446,2.446,0,0,0-2.015-1.115,2.484,2.484,0,1,0,1.991,3.922Z"
       class="cls-2" />
    <path
       id="path18"
       d="M40.659,33.235a3.2,3.2,0,1,1-3.226,3.2A3.151,3.151,0,0,1,40.659,33.235ZM42,36.438a1.356,1.356,0,1,0-2.674,0,1.353,1.353,0,1,0,2.674,0Z"
       class="cls-2" />
    <path
       id="path20"
       d="M45.136,33.331H47.08v1.008a2.282,2.282,0,0,1,1.954-1.1,2,2,0,0,1,2.051,2.111V39.52H49.142V35.909a1.03,1.03,0,0,0-1.031-1.151,1.25,1.25,0,0,0-1.031.515V39.52H45.136Z"
       class="cls-2" />
    <path
       id="path22"
       d="M53.188,34.83h-1.2v-1.5h1.2V31.616l1.943-.4v2.111h1.655v1.5H55.131v2.4c0,.551.216.744.815.744a2.636,2.636,0,0,0,.792-.132v1.57a5.361,5.361,0,0,1-1.331.193c-1.464,0-2.219-.672-2.219-1.992Z"
       class="cls-2" />
    <path
       id="path24"
       d="M57.749,31.292a1.1,1.1,0,0,1,2.194,0,1.1,1.1,0,0,1-2.194,0Zm2.063,8.228H57.868V33.331h1.944Z"
       class="cls-2" />
    <path
       id="path26"
       d="M61.324,33.331h1.944v1.008a2.282,2.282,0,0,1,1.954-1.1,2,2,0,0,1,2.051,2.111V39.52H65.33V35.909A1.03,1.03,0,0,0,64.3,34.758a1.25,1.25,0,0,0-1.031.515V39.52H61.324Z"
       class="cls-2" />
    <path
       id="path28"
       d="M70.575,36.941a1.031,1.031,0,0,0,1.032,1.152,1.249,1.249,0,0,0,1.031-.517V33.331h1.943V39.52H72.638V38.512a2.283,2.283,0,0,1-1.955,1.1,2,2,0,0,1-2.051-2.11V33.331h1.943Z"
       class="cls-2" />
    <path
       id="path30"
       d="M79.047,33.235a3.2,3.2,0,1,1-3.226,3.2A3.151,3.151,0,0,1,79.047,33.235Zm1.343,3.2a1.357,1.357,0,1,0-2.675,0,1.353,1.353,0,1,0,2.675,0Z"
       class="cls-2" />
    <path
       id="path32"
       d="M85.419,36.941a1.031,1.031,0,0,0,1.032,1.152,1.249,1.249,0,0,0,1.031-.517V33.331h1.943V39.52H87.482V38.512a2.285,2.285,0,0,1-1.955,1.1,2,2,0,0,1-2.051-2.11V33.331h1.943Z"
       class="cls-2" />
    <path
       id="path34"
       d="M91.288,37.589a4,4,0,0,0,1.991.623c.552,0,.888-.191.888-.5,0-.24-.181-.372-.576-.444L92.4,37.049c-1.2-.228-1.822-.84-1.822-1.8,0-1.271.971-2.027,2.59-2.027a4.969,4.969,0,0,1,2.518.708L94.8,35.166a3.5,3.5,0,0,0-1.775-.527c-.468,0-.744.155-.744.431,0,.252.156.36.636.444l1.164.215c1.223.228,1.871.852,1.858,1.788.013,1.211-1.139,2.123-2.662,2.123a5.052,5.052,0,0,1-2.842-.756Z"
       class="cls-2" />
    <path
       id="path36"
       d="M99.832,31.124h3.418a4.2,4.2,0,1,1,0,8.4H99.832Zm2.063,1.763v4.87h1.355a2.244,2.244,0,0,0,2.087-2.411,2.283,2.283,0,0,0-2.087-2.459Z"
       class="cls-2" />
    <path
       id="path38"
       d="M111.758,39.64a3.2,3.2,0,0,1-3.262-3.2,3.1,3.1,0,0,1,3.118-3.215,3.042,3.042,0,0,1,3.047,3.286v.42H110.4a1.484,1.484,0,0,0,1.451,1.164,1.531,1.531,0,0,0,1.223-.517l1.284,1.068A3.608,3.608,0,0,1,111.758,39.64ZM110.4,35.825h2.458a1.288,1.288,0,0,0-1.259-1.091A1.229,1.229,0,0,0,110.4,35.825Z"
       class="cls-2" />
    <path
       id="path40"
       d="M115.875,33.331h1.919v.863a2.288,2.288,0,0,1,1.835-.9,2.949,2.949,0,0,1,2.735,3.143,2.983,2.983,0,0,1-2.878,3.118,2.156,2.156,0,0,1-1.667-.72V42.1h-1.944Zm1.944,2.075v2.063a1.6,1.6,0,0,0,1.163.491,1.53,1.53,0,0,0,0-3.058A1.5,1.5,0,0,0,117.819,35.406Z"
       class="cls-2" />
    <path
       id="path42"
       d="M125.547,39.52H123.6V30.944l1.943-.3Z"
       class="cls-2" />
    <path
       id="path44"
       d="M130.01,33.235a3.2,3.2,0,1,1-3.226,3.2A3.151,3.151,0,0,1,130.01,33.235Zm1.344,3.2a1.357,1.357,0,1,0-2.675,0,1.353,1.353,0,1,0,2.675,0Z"
       class="cls-2" />
    <path
       id="path46"
       d="M135.854,39.64l-2.278-6.309h2.147l1.235,3.994,1.415-3.994h2.1l-2.783,6.908a2.549,2.549,0,0,1-2.71,1.931,3.956,3.956,0,0,1-.8-.1V40.443a4.114,4.114,0,0,0,.576.048.947.947,0,0,0,1.007-.624Z"
       class="cls-2" />
    <path
       id="path48"
       d="M141.315,33.331h1.944v.983a2.121,2.121,0,0,1,1.835-1.079,1.834,1.834,0,0,1,1.739,1.152,2.335,2.335,0,0,1,2.026-1.152,1.983,1.983,0,0,1,1.943,2.171V39.52h-1.943V35.79a.926.926,0,0,0-.923-1.032,1.06,1.06,0,0,0-.9.48V39.52h-1.943V35.79a.927.927,0,0,0-.924-1.032,1.109,1.109,0,0,0-.911.48V39.52h-1.944Z"
       class="cls-2" />
    <path
       id="path50"
       d="M155.258,39.64a3.2,3.2,0,0,1-3.262-3.2,3.1,3.1,0,0,1,3.118-3.215,3.042,3.042,0,0,1,3.047,3.286v.42H153.9a1.484,1.484,0,0,0,1.451,1.164,1.531,1.531,0,0,0,1.223-.517l1.284,1.068A3.608,3.608,0,0,1,155.258,39.64ZM153.9,35.825h2.458a1.288,1.288,0,0,0-1.259-1.091A1.229,1.229,0,0,0,153.9,35.825Z"
       class="cls-2" />
    <path
       id="path52"
       d="M159.375,33.331h1.943v1.008a2.285,2.285,0,0,1,1.955-1.1,2,2,0,0,1,2.051,2.111V39.52h-1.943V35.909a1.03,1.03,0,0,0-1.031-1.151,1.253,1.253,0,0,0-1.032.515V39.52h-1.943Z"
       class="cls-2" />
    <path
       id="path54"
       d="M167.427,34.83h-1.2v-1.5h1.2V31.616l1.943-.4v2.111h1.655v1.5H169.37v2.4c0,.551.216.744.816.744a2.631,2.631,0,0,0,.791-.132v1.57a5.354,5.354,0,0,1-1.331.193c-1.463,0-2.219-.672-2.219-1.992Z"
       class="cls-2" />
  </g>
  <rect
     id="rect58"
     height="84.426"
     width="84.726"
     y="87.227"
     x="28.493"
     class="cls-3" />
  <g
     id="g74">
    <path
       id="path60"
       d="M54.239,151.906h2.3a3.151,3.151,0,1,1,0,6.3h-2.3Zm1.08.936v4.429H56.57a2.224,2.224,0,0,0,0-4.429Z"
       class="cls-2" />
    <path
       id="path62"
       d="M62.879,158.3a2.293,2.293,0,0,1-2.3-2.34,2.223,2.223,0,0,1,2.2-2.333,2.166,2.166,0,0,1,2.134,2.323v.252H61.583a1.377,1.377,0,0,0,1.35,1.234A1.465,1.465,0,0,0,64,157.011l.666.621A2.606,2.606,0,0,1,62.879,158.3ZM61.6,155.579H63.95a1.234,1.234,0,0,0-1.179-1.125A1.211,1.211,0,0,0,61.6,155.579Z"
       class="cls-2" />
    <path
       id="path64"
       d="M65.281,153.7h1.108l1.251,3.295,1.251-3.295h1.071l-1.854,4.51h-.982Z"
       class="cls-2" />
    <path
       id="path66"
       d="M72.644,158.3a2.293,2.293,0,0,1-2.3-2.34,2.221,2.221,0,0,1,2.2-2.333,2.166,2.166,0,0,1,2.134,2.323v.252H71.348a1.377,1.377,0,0,0,1.35,1.234,1.467,1.467,0,0,0,1.072-.423l.666.621A2.612,2.612,0,0,1,72.644,158.3Zm-1.278-2.719h2.349a1.234,1.234,0,0,0-1.179-1.125A1.211,1.211,0,0,0,71.366,155.579Z"
       class="cls-2" />
    <path
       id="path68"
       d="M76.729,158.208H75.712v-6.437l1.017-.171Z"
       class="cls-2" />
    <path
       id="path70"
       d="M80.042,153.625a2.338,2.338,0,1,1-2.269,2.333A2.253,2.253,0,0,1,80.042,153.625Zm1.26,2.341a1.275,1.275,0,1,0-2.52,0,1.272,1.272,0,1,0,2.52,0Z"
       class="cls-2" />
    <path
       id="path72"
       d="M83.362,153.7h1v.648a1.7,1.7,0,0,1,1.405-.684,2.307,2.307,0,0,1-.072,4.591,1.689,1.689,0,0,1-1.315-.585v2.449H83.362Zm1.017,1.323V156.9a1.386,1.386,0,0,0,1.081.5,1.444,1.444,0,0,0,0-2.881A1.326,1.326,0,0,0,84.379,155.021Z"
       class="cls-2" />
  </g>
  <rect
     id="rect76"
     height="84.426"
     width="84.726"
     y="87.227"
     x="168.529"
     class="cls-3" />
  <rect
     id="rect78"
     height="84.426"
     width="84.726"
     y="87.227"
     x="308.564"
     class="cls-3" />
  <rect
     id="rect80"
     height="84.426"
     width="84.726"
     y="87.227"
     x="448.6"
     class="cls-3" />
  <rect
     id="rect82"
     height="84.426"
     width="84.726"
     y="87.227"
     x="588.635"
     class="cls-3" />
  <rect
     id="rect84"
     height="84.426"
     width="84.726"
     y="87.227"
     x="728.671"
     class="cls-3" />
  <g
     id="g98">
    <path
       id="path86"
       d="M199.571,156.506l.712.685a3.235,3.235,0,1,1,.027-4.268l-.729.721a2.217,2.217,0,1,0-1.693,3.682A2.133,2.133,0,0,0,199.571,156.506Z"
       class="cls-2" />
    <path
       id="path88"
       d="M203.2,153.625a2.338,2.338,0,1,1-2.269,2.333A2.252,2.252,0,0,1,203.2,153.625Zm1.26,2.341a1.275,1.275,0,1,0-2.52,0,1.272,1.272,0,1,0,2.52,0Z"
       class="cls-2" />
    <path
       id="path90"
       d="M206.518,153.7h1.017v.72a1.539,1.539,0,0,1,1.341-.793,1.418,1.418,0,0,1,1.324.874,1.664,1.664,0,0,1,1.494-.874,1.5,1.5,0,0,1,1.477,1.639v2.944h-1.018V155.48a.912.912,0,0,0-.909-1.035,1.074,1.074,0,0,0-.909.531c.009.1.018.189.018.288v2.944h-1.017V155.48a.913.913,0,0,0-.91-1.035,1.046,1.046,0,0,0-.891.513v3.25h-1.017Z"
       class="cls-2" />
    <path
       id="path92"
       d="M214.4,153.7h1.017v.72a1.539,1.539,0,0,1,1.341-.793,1.418,1.418,0,0,1,1.324.874,1.664,1.664,0,0,1,1.494-.874,1.5,1.5,0,0,1,1.477,1.639v2.944h-1.018V155.48a.912.912,0,0,0-.909-1.035,1.074,1.074,0,0,0-.909.531c.009.1.018.189.018.288v2.944H217.22V155.48a.913.913,0,0,0-.91-1.035,1.046,1.046,0,0,0-.891.513v3.25H214.4Z"
       class="cls-2" />
    <path
       id="path94"
       d="M222.159,152.158a.635.635,0,0,1,1.27,0,.635.635,0,0,1-1.27,0Zm1.144,6.05h-1.017V153.7H223.3Z"
       class="cls-2" />
    <path
       id="path96"
       d="M225.112,154.508H224.2v-.81h.909v-1.243l1.017-.216V153.7h1.26v.81h-1.26v2.286c0,.442.171.613.63.613a1.878,1.878,0,0,0,.613-.108v.855a3.212,3.212,0,0,1-.874.126c-.909,0-1.386-.432-1.386-1.26Z"
       class="cls-2" />
  </g>
  <g
     id="g132">
    <path
       id="path100"
       d="M381.869,188.957a3,3,0,0,0,2.115,1.08c.775,0,1.324-.423,1.324-1.017,0-.423-.261-.648-.991-.856l-1.1-.288a1.578,1.578,0,0,1-1.368-1.53c0-1.153.9-1.909,2.277-1.909a3.745,3.745,0,0,1,2.611,1.008l-.657.748a2.858,2.858,0,0,0-2.017-.864c-.72,0-1.188.351-1.188.882,0,.4.261.648.846.8l1.054.27c1.08.279,1.584.792,1.584,1.585a2.168,2.168,0,0,1-2.448,2.052,3.558,3.558,0,0,1-2.71-1.215Z"
       class="cls-2" />
    <path
       id="path102"
       d="M389.357,190.919a2.025,2.025,0,0,1-2.124-2.1,2.489,2.489,0,0,1,2.376-2.565,1.849,1.849,0,0,1,1.882,1.989,3.717,3.717,0,0,1-.036.576h-3.25a1.217,1.217,0,0,0,1.233,1.252,1.511,1.511,0,0,0,1.027-.369l.549.666A2.712,2.712,0,0,1,389.357,190.919Zm-1.071-2.719h2.305a1.07,1.07,0,0,0-1.035-1.107A1.365,1.365,0,0,0,388.286,188.2Z"
       class="cls-2" />
    <path
       id="path104"
       d="M392.2,186.319h1.044l.513,3.313,1.936-3.313h1.08l-2.8,4.51h-.963Z"
       class="cls-2" />
    <path
       id="path106"
       d="M398.879,190.919a2.025,2.025,0,0,1-2.124-2.1,2.489,2.489,0,0,1,2.376-2.565,1.849,1.849,0,0,1,1.882,1.989,3.717,3.717,0,0,1-.036.576h-3.25a1.217,1.217,0,0,0,1.233,1.252,1.511,1.511,0,0,0,1.027-.369l.549.666A2.712,2.712,0,0,1,398.879,190.919Zm-1.071-2.719h2.305a1.07,1.07,0,0,0-1.035-1.107A1.365,1.365,0,0,0,397.808,188.2Z"
       class="cls-2" />
    <path
       id="path108"
       d="M402.505,186.319h1.009l-.2.9a1.6,1.6,0,0,1,1.341-.972,1.122,1.122,0,0,1,.5.108l-.2.891a1.208,1.208,0,0,0-.594-.135,1.482,1.482,0,0,0-1.179.684l-.657,3.034h-1.009Z"
       class="cls-2" />
    <path
       id="path110"
       d="M404.926,189.641c0-.883.694-1.45,1.774-1.45a2.921,2.921,0,0,1,1.332.315l.081-.378c.154-.693-.171-1.035-.963-1.035a3.4,3.4,0,0,0-1.224.279l-.243-.747a4.889,4.889,0,0,1,1.71-.369c1.315,0,1.963.7,1.72,1.836l-.6,2.737h-.991l.09-.405a1.968,1.968,0,0,1-1.233.459C405.494,190.883,404.926,190.4,404.926,189.641Zm1.81.531a1.655,1.655,0,0,0,1-.324l.171-.765a2.192,2.192,0,0,0-1.08-.234c-.585,0-.963.278-.963.7C405.863,189.947,406.178,190.172,406.736,190.172Z"
       class="cls-2" />
    <path
       id="path112"
       d="M410.713,190.829h-1.008l1.359-6.437,1.027-.171Z"
       class="cls-2" />
    <path
       id="path114"
       d="M415.322,187.129h-.883l.181-.81h.873l.261-1.243,1.053-.216-.315,1.459h1.234l-.181.81h-1.224l-.486,2.26c-.108.468.054.648.567.648a1.928,1.928,0,0,0,.513-.072l-.18.846a3.3,3.3,0,0,1-.765.09c-.936,0-1.36-.477-1.171-1.332Z"
       class="cls-2" />
    <path
       id="path116"
       d="M418.633,190.829h-1.008l.981-4.51h1.009Zm.126-5.977a.72.72,0,0,1,.694-.7.555.555,0,0,1,.558.558.707.707,0,0,1-.7.693A.535.535,0,0,1,418.759,184.852Z"
       class="cls-2" />
    <path
       id="path118"
       d="M420.847,186.319h1.008l-.162.765a1.781,1.781,0,0,1,1.4-.819,1.126,1.126,0,0,1,1.161.936,2.058,2.058,0,0,1,1.621-.936c.864,0,1.341.72,1.125,1.7l-.6,2.863h-1.008l.585-2.719c.126-.612-.154-1.044-.694-1.044a1.31,1.31,0,0,0-.99.576,1.9,1.9,0,0,1-.045.324l-.612,2.863h-1l.576-2.683c.135-.648-.144-1.08-.693-1.08a1.236,1.236,0,0,0-.928.5l-.711,3.259h-1.008Z"
       class="cls-2" />
    <path
       id="path120"
       d="M429.992,190.919a2.026,2.026,0,0,1-2.125-2.1,2.489,2.489,0,0,1,2.377-2.565,1.85,1.85,0,0,1,1.882,1.989,3.845,3.845,0,0,1-.036.576h-3.25a1.216,1.216,0,0,0,1.233,1.252,1.515,1.515,0,0,0,1.027-.369l.548.666A2.708,2.708,0,0,1,429.992,190.919Zm-1.071-2.719h2.305a1.07,1.07,0,0,0-1.036-1.107A1.365,1.365,0,0,0,428.921,188.2Z"
       class="cls-2" />
    <path
       id="path122"
       d="M433.069,189.524a2.19,2.19,0,0,0,1.458.621c.478,0,.837-.27.837-.621,0-.234-.152-.378-.53-.478l-.766-.207c-.7-.189-1.053-.585-1.053-1.17,0-.873.657-1.422,1.692-1.422a2.847,2.847,0,0,1,1.837.666l-.558.63a2.276,2.276,0,0,0-1.341-.531c-.459,0-.739.207-.739.531,0,.261.135.387.523.5l.764.207c.747.207,1.108.567,1.108,1.135a1.643,1.643,0,0,1-1.791,1.548,2.878,2.878,0,0,1-2-.756Z"
       class="cls-2" />
    <path
       id="path124"
       d="M439.018,189.641c0-.883.693-1.45,1.773-1.45a2.921,2.921,0,0,1,1.332.315l.081-.378c.153-.693-.171-1.035-.963-1.035a3.4,3.4,0,0,0-1.224.279l-.244-.747a4.9,4.9,0,0,1,1.711-.369c1.315,0,1.963.7,1.72,1.836l-.6,2.737h-.991l.09-.405a1.964,1.964,0,0,1-1.233.459C439.585,190.883,439.018,190.4,439.018,189.641Zm1.809.531a1.651,1.651,0,0,0,1-.324l.171-.765a2.192,2.192,0,0,0-1.08-.234c-.585,0-.963.278-.963.7C439.954,189.947,440.269,190.172,440.827,190.172Z"
       class="cls-2" />
    <path
       id="path126"
       d="M449.062,190.4a1.7,1.7,0,0,1-1.2.477,1.886,1.886,0,0,1-1.756-2.053,2.437,2.437,0,0,1,2.305-2.538,1.555,1.555,0,0,1,1.359.693l.54-2.584,1.037-.171-1.387,6.608h-.99Zm-.791-.369a1.375,1.375,0,0,0,.945-.378l.414-1.981a1.294,1.294,0,0,0-1.063-.522,1.51,1.51,0,0,0-1.467,1.593A1.183,1.183,0,0,0,448.271,190.028Z"
       class="cls-2" />
    <path
       id="path128"
       d="M451.294,189.641c0-.883.692-1.45,1.773-1.45a2.921,2.921,0,0,1,1.332.315l.081-.378c.154-.693-.17-1.035-.962-1.035a3.4,3.4,0,0,0-1.225.279l-.243-.747a4.889,4.889,0,0,1,1.71-.369c1.314,0,1.963.7,1.719,1.836l-.6,2.737h-.99l.09-.405a1.972,1.972,0,0,1-1.234.459C451.86,190.883,451.294,190.4,451.294,189.641Zm1.809.531a1.66,1.66,0,0,0,1-.324l.17-.765a2.192,2.192,0,0,0-1.08-.234c-.586,0-.964.278-.964.7C452.229,189.947,452.545,190.172,453.1,190.172Z"
       class="cls-2" />
    <path
       id="path130"
       d="M457.108,190.892l-.72-4.573h1.044l.45,3.421,1.972-3.421h1.1l-3.178,5.32a1.884,1.884,0,0,1-1.711,1.1,2.333,2.333,0,0,1-.629-.1l.179-.865a2.037,2.037,0,0,0,.406.055.862.862,0,0,0,.819-.469Z"
       class="cls-2" />
  </g>
  <g
     id="g172">
    <path
       id="path134"
       d="M319.086,146.538h2.8a1.921,1.921,0,0,1,2.107,1.908,1.791,1.791,0,0,1-1.243,1.729l1.324,2.665h-1.2l-1.215-2.521h-1.494v2.521h-1.081Zm1.081.909v2.008H321.8a1.009,1.009,0,1,0,0-2.008Z"
       class="cls-2" />
    <path
       id="path136"
       d="M325.909,151.012a.972.972,0,0,0,.99,1.081,1.14,1.14,0,0,0,.99-.558v-3.2h1.017v4.51h-1.017v-.747a1.649,1.649,0,0,1-1.44.819,1.513,1.513,0,0,1-1.558-1.612v-2.97h1.018Z"
       class="cls-2" />
    <path
       id="path138"
       d="M330.156,148.33h1.017v.738a1.639,1.639,0,0,1,1.432-.811,1.518,1.518,0,0,1,1.557,1.612v2.971h-1.017v-2.683a.971.971,0,0,0-.99-1.08,1.159,1.159,0,0,0-.982.54v3.223h-1.017Z"
       class="cls-2" />
    <path
       id="path140"
       d="M337.491,146.538h1.08v6.3h-1.08Z"
       class="cls-2" />
    <path
       id="path142"
       d="M339.912,148.33h1.017v.738a1.638,1.638,0,0,1,1.432-.811,1.518,1.518,0,0,1,1.557,1.612v2.971H342.9v-2.683a.971.971,0,0,0-.99-1.08,1.156,1.156,0,0,0-.982.54v3.223h-1.017Z"
       class="cls-2" />
    <path
       id="path144"
       d="M345.573,149.14h-.909v-.81h.909v-1.243l1.017-.216v1.459h1.261v.81H346.59v2.286c0,.442.172.613.631.613a1.872,1.872,0,0,0,.612-.108v.855a3.206,3.206,0,0,1-.874.126c-.909,0-1.386-.433-1.386-1.261Z"
       class="cls-2" />
    <path
       id="path146"
       d="M350.766,152.93a2.293,2.293,0,0,1-2.3-2.341,2.222,2.222,0,0,1,2.2-2.332,2.166,2.166,0,0,1,2.134,2.323v.252H349.47a1.377,1.377,0,0,0,1.35,1.233,1.466,1.466,0,0,0,1.072-.422l.666.621A2.61,2.61,0,0,1,350.766,152.93Zm-1.278-2.719h2.349a1.234,1.234,0,0,0-1.179-1.125A1.211,1.211,0,0,0,349.488,150.211Z"
       class="cls-2" />
    <path
       id="path148"
       d="M353.655,150.58a2.177,2.177,0,0,1,2.106-2.287,1.7,1.7,0,0,1,1.323.613v-.576h1.009v4.663c0,1.161-.756,1.8-2.125,1.8a3.9,3.9,0,0,1-1.809-.432l.36-.756a3.07,3.07,0,0,0,1.4.387c.757,0,1.153-.342,1.153-1v-.765a1.752,1.752,0,0,1-1.378.639A2.161,2.161,0,0,1,353.655,150.58ZM356,152.021a1.348,1.348,0,0,0,1.072-.5v-1.89a1.4,1.4,0,0,0-1.072-.486,1.345,1.345,0,0,0-1.341,1.431A1.364,1.364,0,0,0,356,152.021Z"
       class="cls-2" />
    <path
       id="path150"
       d="M359.343,148.33h1.017v.981a1.337,1.337,0,0,1,1.242-1.062,1.185,1.185,0,0,1,.441.089v.892a1.434,1.434,0,0,0-.558-.108,1.237,1.237,0,0,0-1.125.747v2.971h-1.017Z"
       class="cls-2" />
    <path
       id="path152"
       d="M362.5,151.543c0-.81.658-1.323,1.72-1.323a2.787,2.787,0,0,1,1.215.279V150c0-.594-.342-.9-1.035-.9a3.124,3.124,0,0,0-1.315.351l-.359-.738a4.314,4.314,0,0,1,1.872-.46c1.171,0,1.845.595,1.845,1.639v2.944h-1.008v-.459a1.882,1.882,0,0,1-1.341.531A1.422,1.422,0,0,1,362.5,151.543Zm1.873.658a1.613,1.613,0,0,0,1.062-.369v-.739a2.333,2.333,0,0,0-1.044-.216c-.576,0-.936.252-.936.648C363.456,151.939,363.816,152.2,364.374,152.2Z"
       class="cls-2" />
    <path
       id="path154"
       d="M368.1,149.14h-.91v-.81h.91v-1.243l1.017-.216v1.459h1.26v.81h-1.26v2.286c0,.442.171.613.63.613a1.868,1.868,0,0,0,.612-.108v.855a3.2,3.2,0,0,1-.873.126c-.909,0-1.386-.433-1.386-1.261Z"
       class="cls-2" />
    <path
       id="path156"
       d="M371.142,146.79a.635.635,0,0,1,1.269,0,.635.635,0,0,1-1.269,0Zm1.143,6.05h-1.017v-4.51h1.017Z"
       class="cls-2" />
    <path
       id="path158"
       d="M375.6,148.257a2.338,2.338,0,1,1-2.268,2.332A2.252,2.252,0,0,1,375.6,148.257Zm1.26,2.341a1.275,1.275,0,1,0-2.52,0,1.272,1.272,0,1,0,2.52,0Z"
       class="cls-2" />
    <path
       id="path160"
       d="M378.917,148.33h1.018v.738a1.637,1.637,0,0,1,1.431-.811,1.518,1.518,0,0,1,1.557,1.612v2.971h-1.017v-2.683a.971.971,0,0,0-.99-1.08,1.156,1.156,0,0,0-.981.54v3.223h-1.018Z"
       class="cls-2" />
    <path
       id="path162"
       d="M339.979,157.338h5.293v.936h-2.1v5.366H342.1v-5.366h-2.116Z"
       class="cls-2" />
    <path
       id="path164"
       d="M347.27,163.729a2.292,2.292,0,0,1-2.3-2.34,2.221,2.221,0,0,1,2.2-2.332,2.165,2.165,0,0,1,2.134,2.323v.252h-3.331a1.377,1.377,0,0,0,1.351,1.233,1.465,1.465,0,0,0,1.071-.423l.666.621A2.608,2.608,0,0,1,347.27,163.729Zm-1.279-2.718h2.35a1.234,1.234,0,0,0-1.179-1.125A1.212,1.212,0,0,0,345.991,161.011Z"
       class="cls-2" />
    <path
       id="path166"
       d="M350.455,162.433a2.6,2.6,0,0,0,1.45.513c.54,0,.909-.243.909-.6,0-.279-.189-.432-.621-.513l-.8-.135c-.874-.162-1.306-.567-1.306-1.242,0-.847.693-1.4,1.747-1.4a3.174,3.174,0,0,1,1.773.541l-.477.666a2.464,2.464,0,0,0-1.359-.432c-.469,0-.775.2-.775.531,0,.288.162.414.639.5l.793.144c.9.171,1.332.585,1.332,1.26a1.652,1.652,0,0,1-1.837,1.467,3.025,3.025,0,0,1-1.944-.611Z"
       class="cls-2" />
    <path
       id="path168"
       d="M355.162,159.939h-.909v-.81h.909v-1.242l1.017-.216v1.458h1.26v.81h-1.26v2.287c0,.441.172.612.631.612a1.846,1.846,0,0,0,.612-.108v.855a3.169,3.169,0,0,1-.874.127c-.909,0-1.386-.433-1.386-1.261Z"
       class="cls-2" />
    <path
       id="path170"
       d="M358.492,162.433a2.6,2.6,0,0,0,1.449.513c.54,0,.91-.243.91-.6,0-.279-.189-.432-.622-.513l-.8-.135c-.873-.162-1.305-.567-1.305-1.242,0-.847.693-1.4,1.746-1.4a3.177,3.177,0,0,1,1.774.541l-.477.666a2.47,2.47,0,0,0-1.36-.432c-.468,0-.774.2-.774.531,0,.288.162.414.639.5l.792.144c.9.171,1.333.585,1.333,1.26a1.653,1.653,0,0,1-1.837,1.467,3.025,3.025,0,0,1-1.944-.611Z"
       class="cls-2" />
  </g>
  <g
     id="g200">
    <path
       id="path174"
       d="M482.108,151.138l.711.685a3.234,3.234,0,1,1,.028-4.268l-.73.72a2.217,2.217,0,1,0-1.692,3.683A2.136,2.136,0,0,0,482.108,151.138Z"
       class="cls-2" />
    <path
       id="path176"
       d="M483.808,148.33h1.017v.981a1.337,1.337,0,0,1,1.242-1.062,1.194,1.194,0,0,1,.442.089v.892a1.435,1.435,0,0,0-.559-.108,1.237,1.237,0,0,0-1.125.747v2.971h-1.017Z"
       class="cls-2" />
    <path
       id="path178"
       d="M489.218,152.93a2.294,2.294,0,0,1-2.3-2.341,2.222,2.222,0,0,1,2.2-2.332,2.165,2.165,0,0,1,2.134,2.323v.252h-3.331a1.378,1.378,0,0,0,1.35,1.233,1.466,1.466,0,0,0,1.072-.422l.666.621A2.608,2.608,0,0,1,489.218,152.93Zm-1.279-2.719h2.35a1.234,1.234,0,0,0-1.18-1.125A1.213,1.213,0,0,0,487.939,150.211Z"
       class="cls-2" />
    <path
       id="path180"
       d="M492.024,151.543c0-.81.658-1.323,1.72-1.323a2.784,2.784,0,0,1,1.215.279V150c0-.594-.342-.9-1.035-.9a3.127,3.127,0,0,0-1.315.351l-.359-.738a4.317,4.317,0,0,1,1.872-.46c1.171,0,1.846.595,1.846,1.639v2.944h-1.009v-.459a1.881,1.881,0,0,1-1.341.531A1.423,1.423,0,0,1,492.024,151.543Zm1.873.658a1.613,1.613,0,0,0,1.062-.369v-.739a2.328,2.328,0,0,0-1.044-.216c-.576,0-.936.252-.936.648C492.979,151.939,493.339,152.2,493.9,152.2Z"
       class="cls-2" />
    <path
       id="path182"
       d="M497.623,149.14h-.909v-.81h.909v-1.243l1.017-.216v1.459h1.26v.81h-1.26v2.286c0,.442.172.613.631.613a1.872,1.872,0,0,0,.612-.108v.855a3.212,3.212,0,0,1-.874.126c-.909,0-1.386-.433-1.386-1.261Z"
       class="cls-2" />
    <path
       id="path184"
       d="M502.816,152.93a2.293,2.293,0,0,1-2.295-2.341,2.222,2.222,0,0,1,2.2-2.332,2.166,2.166,0,0,1,2.134,2.323v.252H501.52a1.377,1.377,0,0,0,1.35,1.233,1.464,1.464,0,0,0,1.071-.422l.666.621A2.6,2.6,0,0,1,502.816,152.93Zm-1.278-2.719h2.35a1.234,1.234,0,0,0-1.18-1.125A1.211,1.211,0,0,0,501.538,150.211Z"
       class="cls-2" />
    <path
       id="path186"
       d="M475.3,157.338h2.8a1.92,1.92,0,0,1,2.106,1.908,1.791,1.791,0,0,1-1.242,1.729l1.323,2.665h-1.2l-1.215-2.521h-1.5v2.521H475.3Zm1.08.909v2.008h1.63a1.009,1.009,0,1,0,0-2.008Z"
       class="cls-2" />
    <path
       id="path188"
       d="M483.089,163.729a2.293,2.293,0,0,1-2.3-2.34,2.221,2.221,0,0,1,2.2-2.332,2.165,2.165,0,0,1,2.134,2.323v.252h-3.331a1.378,1.378,0,0,0,1.351,1.233,1.466,1.466,0,0,0,1.071-.423l.666.621A2.608,2.608,0,0,1,483.089,163.729Zm-1.278-2.718h2.349a1.234,1.234,0,0,0-1.18-1.125A1.211,1.211,0,0,0,481.811,161.011Z"
       class="cls-2" />
    <path
       id="path190"
       d="M487.174,163.64h-1.017V157.2l1.017-.171Z"
       class="cls-2" />
    <path
       id="path192"
       d="M490.514,163.729a2.293,2.293,0,0,1-2.3-2.34,2.221,2.221,0,0,1,2.2-2.332,2.166,2.166,0,0,1,2.134,2.323v.252h-3.331a1.377,1.377,0,0,0,1.35,1.233,1.467,1.467,0,0,0,1.072-.423l.666.621A2.608,2.608,0,0,1,490.514,163.729Zm-1.279-2.718h2.35a1.234,1.234,0,0,0-1.18-1.125A1.213,1.213,0,0,0,489.235,161.011Z"
       class="cls-2" />
    <path
       id="path194"
       d="M493.321,162.343c0-.81.658-1.323,1.719-1.323a2.788,2.788,0,0,1,1.216.279v-.5c0-.595-.342-.9-1.035-.9a3.131,3.131,0,0,0-1.315.352l-.36-.738a4.318,4.318,0,0,1,1.873-.46c1.17,0,1.845.594,1.845,1.639v2.944h-1.008v-.459a1.883,1.883,0,0,1-1.342.531A1.422,1.422,0,0,1,493.321,162.343Zm1.872.657a1.611,1.611,0,0,0,1.063-.369v-.738a2.336,2.336,0,0,0-1.044-.216c-.576,0-.937.252-.937.648C494.275,162.739,494.636,163,495.193,163Z"
       class="cls-2" />
    <path
       id="path196"
       d="M498.567,162.433a2.6,2.6,0,0,0,1.451.513c.54,0,.909-.243.909-.6,0-.279-.19-.432-.621-.513l-.8-.135c-.873-.162-1.306-.567-1.306-1.242,0-.847.694-1.4,1.747-1.4a3.177,3.177,0,0,1,1.774.541l-.478.666a2.464,2.464,0,0,0-1.359-.432c-.468,0-.775.2-.775.531,0,.288.163.414.64.5l.792.144c.9.171,1.333.585,1.333,1.26a1.653,1.653,0,0,1-1.837,1.467,3.023,3.023,0,0,1-1.944-.611Z"
       class="cls-2" />
    <path
       id="path198"
       d="M504.94,163.729a2.292,2.292,0,0,1-2.3-2.34,2.221,2.221,0,0,1,2.2-2.332,2.166,2.166,0,0,1,2.134,2.323v.252h-3.331a1.377,1.377,0,0,0,1.35,1.233,1.465,1.465,0,0,0,1.071-.423l.666.621A2.6,2.6,0,0,1,504.94,163.729Zm-1.278-2.718h2.35a1.234,1.234,0,0,0-1.18-1.125A1.211,1.211,0,0,0,503.662,161.011Z"
       class="cls-2" />
  </g>
  <g
     id="g224">
    <path
       id="path202"
       d="M622.25,146.538h5.294v.936h-2.1v5.366h-1.08v-5.366H622.25Z"
       class="cls-2" />
    <path
       id="path204"
       d="M629.541,152.93a2.294,2.294,0,0,1-2.3-2.341,2.222,2.222,0,0,1,2.2-2.332,2.165,2.165,0,0,1,2.133,2.323v.252h-3.33a1.377,1.377,0,0,0,1.35,1.233,1.462,1.462,0,0,0,1.071-.422l.667.621A2.612,2.612,0,0,1,629.541,152.93Zm-1.278-2.719h2.349a1.234,1.234,0,0,0-1.179-1.125A1.211,1.211,0,0,0,628.263,150.211Z"
       class="cls-2" />
    <path
       id="path206"
       d="M632.727,151.633a2.6,2.6,0,0,0,1.449.513c.54,0,.909-.243.909-.6,0-.279-.189-.432-.621-.513l-.8-.134c-.873-.163-1.306-.568-1.306-1.243,0-.846.694-1.4,1.747-1.4a3.177,3.177,0,0,1,1.774.541l-.478.666a2.462,2.462,0,0,0-1.359-.432c-.468,0-.774.2-.774.531,0,.288.162.414.639.5l.792.144c.9.171,1.332.585,1.332,1.26a1.652,1.652,0,0,1-1.836,1.468,3.03,3.03,0,0,1-1.945-.612Z"
       class="cls-2" />
    <path
       id="path208"
       d="M637.434,149.14h-.91v-.81h.91v-1.243l1.017-.216v1.459h1.26v.81h-1.26v2.286c0,.442.171.613.63.613a1.868,1.868,0,0,0,.612-.108v.855a3.2,3.2,0,0,1-.873.126c-.91,0-1.386-.433-1.386-1.261Z"
       class="cls-2" />
    <path
       id="path210"
       d="M615.338,157.338h2.8a1.92,1.92,0,0,1,2.107,1.908A1.792,1.792,0,0,1,619,160.975l1.324,2.665h-1.2l-1.215-2.521h-1.494v2.521h-1.081Zm1.081.909v2.008h1.629a1.009,1.009,0,1,0,0-2.008Z"
       class="cls-2" />
    <path
       id="path212"
       d="M623.124,163.729a2.293,2.293,0,0,1-2.3-2.34,2.221,2.221,0,0,1,2.2-2.332,2.165,2.165,0,0,1,2.134,2.323v.252h-3.331a1.377,1.377,0,0,0,1.35,1.233,1.463,1.463,0,0,0,1.071-.423l.667.621A2.612,2.612,0,0,1,623.124,163.729Zm-1.278-2.718H624.2a1.234,1.234,0,0,0-1.179-1.125A1.211,1.211,0,0,0,621.846,161.011Z"
       class="cls-2" />
    <path
       id="path214"
       d="M627.21,163.64h-1.018V157.2l1.018-.171Z"
       class="cls-2" />
    <path
       id="path216"
       d="M630.549,163.729a2.293,2.293,0,0,1-2.3-2.34,2.221,2.221,0,0,1,2.2-2.332,2.165,2.165,0,0,1,2.133,2.323v.252h-3.33a1.377,1.377,0,0,0,1.35,1.233,1.465,1.465,0,0,0,1.071-.423l.667.621A2.612,2.612,0,0,1,630.549,163.729Zm-1.278-2.718h2.349a1.234,1.234,0,0,0-1.18-1.125A1.211,1.211,0,0,0,629.271,161.011Z"
       class="cls-2" />
    <path
       id="path218"
       d="M633.356,162.343c0-.81.658-1.323,1.72-1.323a2.787,2.787,0,0,1,1.215.279v-.5c0-.595-.342-.9-1.035-.9a3.131,3.131,0,0,0-1.315.352l-.36-.738a4.324,4.324,0,0,1,1.873-.46c1.17,0,1.846.594,1.846,1.639v2.944h-1.009v-.459a1.882,1.882,0,0,1-1.341.531A1.423,1.423,0,0,1,633.356,162.343Zm1.873.657a1.608,1.608,0,0,0,1.062-.369v-.738a2.333,2.333,0,0,0-1.044-.216c-.576,0-.936.252-.936.648C634.311,162.739,634.671,163,635.229,163Z"
       class="cls-2" />
    <path
       id="path220"
       d="M638.6,162.433a2.6,2.6,0,0,0,1.449.513c.54,0,.909-.243.909-.6,0-.279-.189-.432-.621-.513l-.8-.135c-.873-.162-1.306-.567-1.306-1.242,0-.847.694-1.4,1.747-1.4a3.177,3.177,0,0,1,1.774.541l-.478.666a2.462,2.462,0,0,0-1.359-.432c-.468,0-.774.2-.774.531,0,.288.162.414.639.5l.792.144c.9.171,1.332.585,1.332,1.26a1.652,1.652,0,0,1-1.836,1.467,3.03,3.03,0,0,1-1.945-.611Z"
       class="cls-2" />
    <path
       id="path222"
       d="M644.976,163.729a2.292,2.292,0,0,1-2.3-2.34,2.221,2.221,0,0,1,2.2-2.332,2.166,2.166,0,0,1,2.134,2.323v.252H643.68a1.376,1.376,0,0,0,1.349,1.233,1.465,1.465,0,0,0,1.072-.423l.667.621A2.612,2.612,0,0,1,644.976,163.729Zm-1.279-2.718h2.35a1.234,1.234,0,0,0-1.18-1.125A1.212,1.212,0,0,0,643.7,161.011Z"
       class="cls-2" />
  </g>
  <g
     id="g252">
    <path
       id="path226"
       d="M756.948,146.538h2.305a3.151,3.151,0,1,1,0,6.3h-2.305Zm1.081.936V151.9h1.251a2.224,2.224,0,0,0,0-4.429Z"
       class="cls-2" />
    <path
       id="path228"
       d="M765.589,152.93a2.294,2.294,0,0,1-2.3-2.341,2.222,2.222,0,0,1,2.2-2.332,2.165,2.165,0,0,1,2.133,2.323v.252h-3.33a1.377,1.377,0,0,0,1.35,1.233,1.464,1.464,0,0,0,1.071-.422l.667.621A2.612,2.612,0,0,1,765.589,152.93Zm-1.278-2.719h2.349a1.234,1.234,0,0,0-1.18-1.125A1.211,1.211,0,0,0,764.311,150.211Z"
       class="cls-2" />
    <path
       id="path230"
       d="M768.657,148.33h1v.648a1.7,1.7,0,0,1,1.4-.685,2.164,2.164,0,0,1,2.042,2.3,2.186,2.186,0,0,1-2.115,2.3,1.686,1.686,0,0,1-1.314-.585v2.449h-1.018Zm1.018,1.323v1.882a1.382,1.382,0,0,0,1.08.5,1.444,1.444,0,0,0,0-2.881A1.324,1.324,0,0,0,769.675,149.653Z"
       class="cls-2" />
    <path
       id="path232"
       d="M775.174,152.84h-1.018V146.4l1.018-.171Z"
       class="cls-2" />
    <path
       id="path234"
       d="M778.485,148.257a2.338,2.338,0,1,1-2.268,2.332A2.253,2.253,0,0,1,778.485,148.257Zm1.261,2.341a1.275,1.275,0,1,0-2.52,0,1.272,1.272,0,1,0,2.52,0Z"
       class="cls-2" />
    <path
       id="path236"
       d="M782.823,152.867l-1.7-4.537h1.135l1.142,3.349,1.261-3.349h1.108l-2.143,5.248a1.527,1.527,0,0,1-1.6,1.189,2.155,2.155,0,0,1-.513-.063v-.874a3.7,3.7,0,0,0,.4.036.72.72,0,0,0,.73-.522Z"
       class="cls-2" />
    <path
       id="path238"
       d="M755.373,157.338h2.8a1.92,1.92,0,0,1,2.107,1.908,1.792,1.792,0,0,1-1.243,1.729l1.324,2.665h-1.2l-1.215-2.521h-1.494v2.521h-1.081Zm1.081.909v2.008h1.629a1.009,1.009,0,1,0,0-2.008Z"
       class="cls-2" />
    <path
       id="path240"
       d="M763.159,163.729a2.293,2.293,0,0,1-2.3-2.34,2.222,2.222,0,0,1,2.2-2.332,2.164,2.164,0,0,1,2.132,2.323v.252h-3.33a1.378,1.378,0,0,0,1.35,1.233,1.463,1.463,0,0,0,1.071-.423l.667.621A2.612,2.612,0,0,1,763.159,163.729Zm-1.278-2.718h2.349a1.234,1.234,0,0,0-1.179-1.125A1.211,1.211,0,0,0,761.881,161.011Z"
       class="cls-2" />
    <path
       id="path242"
       d="M767.245,163.64h-1.017V157.2l1.017-.171Z"
       class="cls-2" />
    <path
       id="path244"
       d="M770.584,163.729a2.293,2.293,0,0,1-2.3-2.34,2.221,2.221,0,0,1,2.2-2.332,2.165,2.165,0,0,1,2.134,2.323v.252h-3.331a1.377,1.377,0,0,0,1.35,1.233,1.463,1.463,0,0,0,1.071-.423l.667.621A2.612,2.612,0,0,1,770.584,163.729Zm-1.278-2.718h2.349a1.234,1.234,0,0,0-1.179-1.125A1.211,1.211,0,0,0,769.306,161.011Z"
       class="cls-2" />
    <path
       id="path246"
       d="M773.392,162.343c0-.81.657-1.323,1.719-1.323a2.787,2.787,0,0,1,1.215.279v-.5c0-.595-.342-.9-1.035-.9a3.123,3.123,0,0,0-1.314.352l-.361-.738a4.324,4.324,0,0,1,1.873-.46c1.17,0,1.846.594,1.846,1.639v2.944h-1.009v-.459a1.882,1.882,0,0,1-1.341.531A1.422,1.422,0,0,1,773.392,162.343Zm1.872.657a1.606,1.606,0,0,0,1.062-.369v-.738a2.333,2.333,0,0,0-1.044-.216c-.576,0-.936.252-.936.648C774.346,162.739,774.706,163,775.264,163Z"
       class="cls-2" />
    <path
       id="path248"
       d="M778.639,162.433a2.6,2.6,0,0,0,1.449.513c.54,0,.909-.243.909-.6,0-.279-.188-.432-.621-.513l-.8-.135c-.873-.162-1.305-.567-1.305-1.242,0-.847.693-1.4,1.747-1.4a3.177,3.177,0,0,1,1.773.541l-.478.666a2.462,2.462,0,0,0-1.359-.432c-.468,0-.774.2-.774.531,0,.288.162.414.639.5l.792.144c.9.171,1.332.585,1.332,1.26a1.652,1.652,0,0,1-1.836,1.467,3.03,3.03,0,0,1-1.945-.611Z"
       class="cls-2" />
    <path
       id="path250"
       d="M785.011,163.729a2.293,2.293,0,0,1-2.3-2.34,2.221,2.221,0,0,1,2.2-2.332,2.165,2.165,0,0,1,2.133,2.323v.252h-3.33a1.376,1.376,0,0,0,1.349,1.233,1.465,1.465,0,0,0,1.072-.423l.667.621A2.612,2.612,0,0,1,785.011,163.729Zm-1.279-2.718h2.35a1.234,1.234,0,0,0-1.18-1.125A1.213,1.213,0,0,0,783.732,161.011Z"
       class="cls-2" />
  </g>
  <g
     id="g258">
    <line
       id="line254"
       y2="129.44"
       x2="161.353"
       y1="129.44"
       x1="113.219"
       class="cls-4" />
    <polygon
       id="polygon256"
       points="159.894 134.426 168.529 129.441 159.894 124.454 159.894 134.426"
       class="cls-5" />
  </g>
  <g
     id="g264">
    <line
       id="line260"
       y2="129.44"
       x2="301.389"
       y1="129.44"
       x1="253.255"
       class="cls-4" />
    <polygon
       id="polygon262"
       points="299.93 134.426 308.564 129.441 299.93 124.454 299.93 134.426"
       class="cls-5" />
  </g>
  <g
     id="g270">
    <line
       id="line266"
       y2="129.44"
       x2="441.098"
       y1="129.44"
       x1="392.964"
       class="cls-4" />
    <polygon
       id="polygon268"
       points="439.639 134.426 448.274 129.441 439.639 124.454 439.639 134.426"
       class="cls-5" />
  </g>
  <g
     id="g276">
    <line
       id="line272"
       y2="129.44"
       x2="581.459"
       y1="129.44"
       x1="533.326"
       class="cls-4" />
    <polygon
       id="polygon274"
       points="580 134.426 588.635 129.441 580 124.454 580 134.426"
       class="cls-5" />
  </g>
  <g
     id="g282">
    <line
       id="line278"
       y2="129.44"
       x2="721.495"
       y1="129.44"
       x1="673.361"
       class="cls-4" />
    <polygon
       id="polygon280"
       points="720.036 134.426 728.671 129.441 720.036 124.454 720.036 134.426"
       class="cls-5" />
  </g>
  <g
     id="g288">
    <polyline
       id="polyline284"
       points="771.145 171.653 771.145 196.03 70.856 196.03 70.856 178.829"
       class="cls-4" />
    <polygon
       id="polygon286"
       points="75.842 180.288 70.857 171.653 65.871 180.288 75.842 180.288"
       class="cls-5" />
  </g>
  <path
     id="path290"
     d="M77.206,126.26l-4.962,3.331a.172.172,0,0,0-.047.24.174.174,0,0,0,.144.075.181.181,0,0,0,.1-.028l4.963-3.333a.172.172,0,0,0-.194-.285ZM74.7,129.232l-3.931,2.655a.172.172,0,0,0,.1.315.164.164,0,0,0,.095-.029l3.932-2.655a.175.175,0,0,0,.046-.241A.173.173,0,0,0,74.7,129.232Zm-3.844-20.09a7.06,7.06,0,1,0-7.061-7.059A7.069,7.069,0,0,0,70.856,109.142Zm0-13.1a6.043,6.043,0,1,1-6.044,6.044A6.05,6.05,0,0,1,70.856,96.039Zm-9.413,41.324H80.289a.173.173,0,1,0,0-.345H61.443a.173.173,0,1,0,0,.345Zm-1.8,2.155a.172.172,0,0,0,.174.172H81.484a.173.173,0,0,0,0-.345H59.816A.174.174,0,0,0,59.642,139.518Zm19.7-16.23H71.385a.585.585,0,0,0,.007-.072.544.544,0,0,0-.543-.543h0a.545.545,0,0,0-.5.331.557.557,0,0,0-.042.212c0,.024,0,.048.007.072H62.356a.892.892,0,0,0-.861.918v9.85a.893.893,0,0,0,.861.921H79.343a.892.892,0,0,0,.86-.921v-9.85A.891.891,0,0,0,79.343,123.288Zm.344,10.768a.38.38,0,0,1-.344.4H62.356a.378.378,0,0,1-.343-.4v-9.85a.44.44,0,0,1,.028-.155.3.3,0,0,1,.028-.049.446.446,0,0,1,.045-.08c.008-.009.019-.013.027-.021a.36.36,0,0,1,.082-.066.3.3,0,0,1,.134-.032H79.344a.38.38,0,0,1,.343.4v9.849ZM81.865,137a1.414,1.414,0,0,0-.488-.94,1.413,1.413,0,0,0,.493-1.069v-.643c2.032-1.583,3.6-3.317,3.6-6.465l-.007-1.017h-.077l-.414-5.3c-.382-3.867-1.092-11.065-10.729-11.065H67.475c-9.825,0-10.414,7.209-10.731,11.084l-.5,6.252v.041c0,3.144,1.619,4.919,3.585,6.455v.653a1.419,1.419,0,0,0,.492,1.069,1.4,1.4,0,0,0-.486.933l-2.954,3.412a.35.35,0,0,0-.085.23c0,.943.36,1.422,1.072,1.422H83.606c.712,0,1.072-.479,1.072-1.422a.345.345,0,0,0-.076-.219ZM59.83,123.031v9.992a6.262,6.262,0,0,1-2.568-5.138l.495-6.212c.382-4.664,1.332-10.148,9.718-10.148h6.766c8.384,0,9.284,5.76,9.717,10.148l.486,6.212h.007a6.277,6.277,0,0,1-2.581,5.145v-10a1.423,1.423,0,0,0-1.422-1.422H79.56l-.144-1.992a.446.446,0,1,0-.891,0l.118,1.992H63.015l.121-2.038a.446.446,0,1,0-.891,0l-.147,2.038H61.25A1.421,1.421,0,0,0,59.83,123.031Zm21.143.164v11.739a.708.708,0,0,1-.707.705H61.428a.707.707,0,0,1-.707-.705V123.2a.707.707,0,0,1,.707-.7H80.267A.707.707,0,0,1,80.973,123.2Zm2.392,17.982H58.109c-.151,0-.336,0-.359-.58l2.889-3.337a.347.347,0,0,0,.082-.224.708.708,0,0,1,.707-.708H80.267a.708.708,0,0,1,.706.708.348.348,0,0,0,.075.214l2.678,3.34C83.7,141.177,83.517,141.177,83.365,141.177Zm-22.539-2.651H80.818a.172.172,0,0,0,0-.344H60.826a.172.172,0,1,0,0,.344Z"
     class="cls-6" />
  <path
     id="path292"
     d="M217.242,126.26l-4.962,3.331a.172.172,0,0,0-.048.24.177.177,0,0,0,.24.047l4.963-3.333a.172.172,0,1,0-.193-.285Zm-2.507,2.972-3.93,2.655a.173.173,0,0,0,.193.286l3.932-2.655a.175.175,0,0,0,.045-.241A.173.173,0,0,0,214.735,129.232Zm-3.844-20.09a7.06,7.06,0,1,0-7.06-7.059A7.069,7.069,0,0,0,210.891,109.142Zm0-13.1a6.043,6.043,0,1,1-6.044,6.044A6.051,6.051,0,0,1,210.891,96.039Zm-9.412,41.324h18.846a.173.173,0,1,0,0-.345H201.479a.173.173,0,1,0,0,.345Zm-1.8,2.155a.172.172,0,0,0,.173.172H221.52a.173.173,0,0,0,0-.345H199.851A.173.173,0,0,0,199.678,139.518Zm19.7-16.23h-7.958a.583.583,0,0,0,.006-.072.543.543,0,0,0-.542-.543h0a.542.542,0,0,0-.5.331.557.557,0,0,0-.043.212c0,.024.005.048.007.072h-7.958a.893.893,0,0,0-.862.918v9.85a.893.893,0,0,0,.862.921h16.987a.891.891,0,0,0,.859-.921v-9.85A.891.891,0,0,0,219.379,123.288Zm.343,10.768a.379.379,0,0,1-.343.4H202.392a.378.378,0,0,1-.343-.4v-9.85a.439.439,0,0,1,.027-.155c.007-.019.02-.032.028-.049a.4.4,0,0,1,.046-.08.194.194,0,0,1,.027-.021.322.322,0,0,1,.082-.066.3.3,0,0,1,.133-.032h16.987a.38.38,0,0,1,.343.4v9.849ZM221.9,137a1.405,1.405,0,0,0-.488-.94,1.414,1.414,0,0,0,.494-1.069v-.643c2.032-1.583,3.6-3.317,3.6-6.465l-.007-1.017h-.076l-.415-5.3c-.381-3.867-1.092-11.065-10.728-11.065h-6.766c-9.825,0-10.415,7.209-10.732,11.084l-.5,6.252v.041c0,3.144,1.619,4.919,3.584,6.455v.653a1.42,1.42,0,0,0,.493,1.069,1.4,1.4,0,0,0-.486.933l-2.955,3.412a.355.355,0,0,0-.085.23c0,.943.36,1.422,1.072,1.422h25.738c.711,0,1.071-.479,1.071-1.422a.345.345,0,0,0-.076-.219Zm-22.035-13.971v9.992a6.265,6.265,0,0,1-2.568-5.138l.5-6.212c.382-4.664,1.332-10.148,9.719-10.148h6.766c8.383,0,9.284,5.76,9.716,10.148l.487,6.212h.006a6.279,6.279,0,0,1-2.58,5.145v-10a1.424,1.424,0,0,0-1.423-1.422H219.6l-.144-1.992a.446.446,0,1,0-.892,0l.118,1.992H203.05l.121-2.038a.446.446,0,1,0-.891,0l-.147,2.038h-.848A1.422,1.422,0,0,0,199.865,123.031Zm21.143.164v11.739a.707.707,0,0,1-.706.705H201.463a.708.708,0,0,1-.707-.705V123.2a.707.707,0,0,1,.707-.7H220.3A.706.706,0,0,1,221.008,123.2Zm2.392,17.982H198.144c-.15,0-.336,0-.358-.58l2.888-3.337a.347.347,0,0,0,.082-.224.708.708,0,0,1,.707-.708H220.3a.708.708,0,0,1,.707.708.348.348,0,0,0,.075.214l2.677,3.34C223.739,141.177,223.553,141.177,223.4,141.177Zm-22.538-2.651h19.992a.172.172,0,0,0,0-.344H200.862a.172.172,0,1,0,0,.344Z"
     class="cls-6" />
  <g
     id="g304">
    <path
       id="path294"
       d="M369.516,123.588a.617.617,0,0,0-.318-.721l-5.752-2.815a.639.639,0,0,0-.274-.063H339.553a.623.623,0,0,0-.245.049l-6.621,2.816a.617.617,0,0,0-.349.735.638.638,0,0,0-.032.162v10.515a.625.625,0,0,0,.625.625h35.991a.626.626,0,0,0,.627-.625V123.751A.59.59,0,0,0,369.516,123.588Zm-29.836-2.349h23.346l3.854,1.887H335.245Zm28.619,12.4H333.558v-9.108H368.3Z"
       class="cls-5" />
    <circle
       id="circle296"
       r="0.86"
       cy="129.053"
       cx="336.721"
       class="cls-5" />
    <circle
       id="circle298"
       r="0.86"
       cy="129.053"
       cx="339.773"
       class="cls-5" />
    <path
       id="path300"
       d="M366.569,131.507a.314.314,0,0,1-.314.313H364.38a.314.314,0,0,1-.314-.313V126.5a.314.314,0,0,1,.314-.313h1.875a.314.314,0,0,1,.314.313Zm-1.877-.313h1.251v-4.38h-1.251Z"
       class="cls-5" />
    <path
       id="path302"
       d="M362.815,131.507a.313.313,0,0,1-.313.313h-1.877a.313.313,0,0,1-.312-.313V126.5a.313.313,0,0,1,.312-.313H362.5a.313.313,0,0,1,.313.313Zm-1.877-.313h1.251v-4.38h-1.251Z"
       class="cls-5" />
  </g>
  <g
     id="g316">
    <path
       id="path306"
       d="M509.552,123.588a.618.618,0,0,0-.318-.721l-5.753-2.815a.636.636,0,0,0-.274-.063H479.588a.627.627,0,0,0-.245.049l-6.621,2.816a.616.616,0,0,0-.348.735.6.6,0,0,0-.033.162v10.515a.625.625,0,0,0,.626.625h35.991a.626.626,0,0,0,.626-.625V123.751A.589.589,0,0,0,509.552,123.588Zm-29.837-2.349h23.347l3.854,1.887H475.28Zm28.619,12.4H473.593v-9.108h34.741Z"
       class="cls-5" />
    <circle
       id="circle308"
       r="0.86"
       cy="129.053"
       cx="476.756"
       class="cls-5" />
    <circle
       id="circle310"
       r="0.86"
       cy="129.053"
       cx="479.809"
       class="cls-5" />
    <path
       id="path312"
       d="M506.6,131.507a.314.314,0,0,1-.313.313h-1.876a.313.313,0,0,1-.313-.313V126.5a.313.313,0,0,1,.313-.313h1.876a.313.313,0,0,1,.313.313Zm-1.877-.313h1.252v-4.38h-1.252Z"
       class="cls-5" />
    <path
       id="path314"
       d="M502.85,131.507a.313.313,0,0,1-.312.313h-1.877a.313.313,0,0,1-.313-.313V126.5a.313.313,0,0,1,.313-.313h1.877a.313.313,0,0,1,.312.313Zm-1.876-.313h1.251v-4.38h-1.251Z"
       class="cls-5" />
  </g>
  <g
     id="g328">
    <path
       id="path318"
       d="M649.587,123.588a.617.617,0,0,0-.318-.721l-5.753-2.815a.632.632,0,0,0-.274-.063H619.624a.62.62,0,0,0-.245.049l-6.621,2.816a.617.617,0,0,0-.349.735.638.638,0,0,0-.032.162v10.515a.625.625,0,0,0,.625.625h35.991a.625.625,0,0,0,.626-.625V123.751A.555.555,0,0,0,649.587,123.588Zm-29.836-2.349H643.1l3.854,1.887H615.316Zm28.618,12.4H613.628v-9.108h34.741Z"
       class="cls-5" />
    <circle
       id="circle320"
       r="0.86"
       cy="129.053"
       cx="616.792"
       class="cls-5" />
    <circle
       id="circle322"
       r="0.86"
       cy="129.053"
       cx="619.844"
       class="cls-5" />
    <path
       id="path324"
       d="M646.64,131.507a.314.314,0,0,1-.314.313h-1.875a.314.314,0,0,1-.314-.313V126.5a.314.314,0,0,1,.314-.313h1.875a.314.314,0,0,1,.314.313Zm-1.877-.313h1.251v-4.38h-1.251Z"
       class="cls-5" />
    <path
       id="path326"
       d="M642.886,131.507a.313.313,0,0,1-.313.313H640.7a.313.313,0,0,1-.313-.313V126.5a.313.313,0,0,1,.313-.313h1.877a.313.313,0,0,1,.313.313Zm-1.877-.313h1.251v-4.38h-1.251Z"
       class="cls-5" />
  </g>
  <g
     id="g340">
    <path
       id="path330"
       d="M789.622,123.588a.617.617,0,0,0-.317-.721l-5.753-2.815a.639.639,0,0,0-.274-.063H759.659a.627.627,0,0,0-.245.049l-6.621,2.816a.618.618,0,0,0-.349.735.638.638,0,0,0-.032.162v10.515a.625.625,0,0,0,.626.625h35.991a.626.626,0,0,0,.626-.625V123.751A.556.556,0,0,0,789.622,123.588Zm-29.836-2.349h23.347l3.854,1.887H755.351Zm28.619,12.4H753.664v-9.108h34.741Z"
       class="cls-5" />
    <circle
       id="circle332"
       r="0.86"
       cy="129.053"
       cx="756.827"
       class="cls-5" />
    <circle
       id="circle334"
       r="0.86"
       cy="129.053"
       cx="759.879"
       class="cls-5" />
    <path
       id="path336"
       d="M786.675,131.507a.314.314,0,0,1-.313.313h-1.876a.313.313,0,0,1-.313-.313V126.5a.313.313,0,0,1,.313-.313h1.876a.313.313,0,0,1,.313.313Zm-1.877-.313h1.251v-4.38H784.8Z"
       class="cls-5" />
    <path
       id="path338"
       d="M782.921,131.507a.313.313,0,0,1-.313.313h-1.876a.313.313,0,0,1-.313-.313V126.5a.313.313,0,0,1,.313-.313h1.876a.313.313,0,0,1,.313.313Zm-1.877-.313H782.3v-4.38h-1.252Z"
       class="cls-5" />
  </g>
</svg>
